# xmcd
#
# Track frame offsets: 
#        150
#        14845
#        26787
#        38325
#        52315
#        66180
#        75865
#        88565
#        101810
#        113102
#        126407
#        141577
#        153625
#        164617
#
# Disc length: 2348 seconds
#
# Revision: 0
# Processed by: cddbd v1.5PL3 Copyright (c) Steve Scherf et al.
# Submitted via: ExactAudioCopy v0.95a5
#
DISCID=c6092a0e
DTITLE=The Village Singers - A Tribute To Governor Jimmie Davis   
DYEAR=2002
DGENRE=Bluegrass
TTITLE0=There's Nothing My God Can't Do
TTITLE1=I Was There When It Happened
TTITLE2=Shackles And Chains
TTITLE3=You Are My Sunshine
TTITLE4=Suppertime
TTITLE5=I Wouldn't Take Nothing For My Journey Now
TTITLE6=Nobody's Darling But Mine
TTITLE7=Sheltered In The Arms Of God
TTITLE8=In The Pines
TTITLE9=One More Valley
TTITLE10=I Know A Man Who Can
TTITLE11=There's A New Moon Over My Sholder
TTITLE12=Columbus Stockade Blues
TTITLE13=Someone To Care
EXTD=
EXTT0=
EXTT1=
EXTT2=
EXTT3=
EXTT4=
EXTT5=
EXTT6=
EXTT7=
EXTT8=
EXTT9=
EXTT10=
EXTT11=
EXTT12=
EXTT13=
PLAYORDER=
